<?xml version="1.0" encoding="UTF-8"?> <svg xmlns="http://www.w3.org/2000/svg" xmlns:xlink="http://www.w3.org/1999/xlink" width="149px" height="51px" viewBox="0 0 149 51" version="1.1"><title>F028FC42-5BB6-44CB-9D30-F4096372A7DA</title><g id="Desktop" stroke="none" stroke-width="1" fill="none" fill-rule="evenodd"><g id="1.1.1-Home-/-Home-/-Drop-down" transform="translate(-165.000000, -26.000000)" fill-rule="nonzero"><g id="pace-logomark-primary-rgb" transform="translate(165.000000, 26.401869)"><path d="M24.8022493,24.8022493 L24.8022493,24.8022493 C11.1043452,24.8022493 0,35.9065945 0,49.6044985 L24.8022493,49.6044985 C38.5001533,49.6044985 49.6044985,38.5001533 49.6044985,24.8022493 L24.8022493,24.8022493 Z" id="Path" fill="#6CCC9B"></path><path d="M24.8022493,1.0658141e-14 L24.8022493,1.0658141e-14 L24.8022493,24.8022493 L8.8817842e-15,24.8022493 L8.8817842e-15,24.8022493 C8.8817842e-15,11.1043452 11.1043452,1.0658141e-14 24.8022493,1.0658141e-14 L24.8022493,1.0658141e-14 Z" id="Path" fill="#6F2DBD" transform="translate(12.401125, 12.401125) rotate(-90.000000) translate(-12.401125, -12.401125) "></path><rect id="Rectangle" fill="#EA9A40" x="24.8022493" y="0" width="24.8022493" height="24.8022493" rx="12.4011246"></rect><path d="M79.7392313,27.3891239 C78.9357347,26.7062906 78.0027504,26.1925588 76.9961026,25.8786669 C75.9101601,25.5396542 74.7779407,25.3722899 73.6403583,25.3826219 L62.0056231,25.3826219 L62.0056231,49.5846567 L65.6614747,49.5846567 L65.6614747,41.2610219 L73.6403583,41.2610219 C74.7780249,41.2725802 75.9104343,41.1051878 76.9961026,40.7649769 C77.9992917,40.4537902 78.9313948,39.9481285 79.7392313,39.2768419 C80.5288025,38.6079865 81.1534735,37.7660387 81.5646769,36.8164588 C82.0217634,35.7249663 82.2440132,34.549493 82.216976,33.3664659 C82.2429531,32.1762948 82.0208046,30.9937553 81.5646769,29.894151 C81.1544261,28.9312933 80.5301376,28.0745931 79.7392313,27.3891239 Z M77.276368,36.7668543 C76.3934079,37.6250121 75.2310092,38.054091 73.7891718,38.054091 L65.6614747,38.054091 L65.6614747,28.6565188 L73.7891718,28.6565188 C75.2310092,28.6565188 76.3934079,29.0698896 77.276368,29.8966312 C78.1593281,30.7233729 78.6008081,31.8733705 78.6008081,33.3466241 C78.6008081,34.7686197 78.1593281,35.9086965 77.276368,36.7668543 Z" id="Shape" fill="#6F2DBD"></path><path d="M100.416867,36.3179336 C100.34742,36.0103857 100.277974,35.7028378 100.193646,35.407691 C99.8348681,34.0411935 99.0662687,32.8173201 97.9912066,31.900653 C96.9495121,31.0325743 95.4952736,30.5977082 93.6284909,30.5960547 C92.007157,30.5680483 90.4107941,30.9978714 89.0227132,31.8361671 C87.663357,32.674096 86.550723,33.8577674 85.7984208,35.2663182 C84.9814005,36.8095818 84.5708372,38.5354843 84.6054327,40.281333 C84.5712929,42.0255615 84.9746162,43.7505573 85.778579,45.298828 C86.5085421,46.695556 87.5964263,47.8733126 88.9309449,48.7116175 C90.2374838,49.5318589 91.7510224,49.962086 93.2936606,49.9519126 C94.7603002,49.9519126 95.9789174,49.6466623 96.9495121,49.036527 C97.9055308,48.4424617 98.6942858,47.6144397 99.2412399,46.6307088 C99.7747254,45.6829853 100.170572,44.6641388 100.416867,43.6048344 L100.416867,45.5121274 C100.416867,46.0081724 100.441669,46.5802776 100.491273,47.228443 C100.540878,47.8766085 100.615285,48.6595328 100.714494,49.577216 L104.033034,49.577216 L104.033034,30.9755291 L100.416867,30.9755291 L100.416867,36.3179336 Z M99.727364,43.6122751 C99.2889044,44.5794876 98.5755716,45.396327 97.676218,45.9610481 C96.7684557,46.5348068 95.6432603,46.8208594 94.3006319,46.8192059 C93.2009629,46.8377226 92.1173462,46.5537343 91.1681078,45.9982515 C90.2467297,45.4509396 89.4974099,44.6560763 89.0053517,43.7040434 C88.4650941,42.6490566 88.1957569,41.4762465 88.2216006,40.2912539 C88.2216006,38.3798272 88.7565024,36.8090181 89.8263061,35.5788266 C90.8961098,34.348635 92.3842448,33.7335392 94.290711,33.7335392 C95.4576915,33.6962758 96.6124896,33.9802566 97.6290937,34.5544937 C98.5314795,35.0964163 99.2516904,35.8952114 99.6976013,36.8487017 C100.636552,39.0057682 100.643731,41.4547011 99.7174431,43.6172355 L99.727364,43.6122751 Z" id="Shape" fill="#6F2DBD"></path><path d="M114.606233,34.4552847 C115.591604,33.9453869 116.686351,33.6831925 117.795803,33.6913754 C119.127679,33.668351 120.43177,34.0734886 121.51614,34.8471602 C122.596651,35.6376528 123.382263,36.7663144 123.748342,38.054091 L127.069364,38.054091 C126.91403,36.605438 126.380276,35.223153 125.521703,34.0460476 C124.679454,32.9341254 123.565833,32.0570636 122.28749,31.4988566 C120.871133,30.8838567 119.339717,30.5785883 117.795803,30.6034954 C116.044274,30.5803172 114.31214,30.9721297 112.741104,31.746879 C111.236205,32.4977628 109.970896,33.6539788 109.087733,35.0852618 C108.179971,36.5386736 107.726089,38.2847519 107.726089,40.3234968 C107.726089,42.3622417 108.179971,44.0983992 109.087733,45.5319692 C109.966725,46.9642331 111.233397,48.1182548 112.741104,48.860431 C114.314054,49.6292289 116.045143,50.0191062 117.795803,49.9988543 C119.345898,50.0212127 120.883254,49.7161079 122.307332,49.1034931 C123.607544,48.5390203 124.738409,47.6457828 125.588669,46.511658 C126.451275,45.3278829 126.966627,43.9269844 127.076804,42.4664112 L123.797947,42.4664112 C123.471839,43.7499034 122.731749,44.8901123 121.692236,45.7105454 C120.685265,46.4794151 119.386454,46.8646767 117.795803,46.8663302 C116.677099,46.8788142 115.571616,46.623703 114.57151,46.1222627 C113.589653,45.6260903 112.773511,44.8547631 112.222737,43.9024614 C111.610562,42.817618 111.30693,41.5859344 111.344738,40.3408584 C111.344738,38.899021 111.643191,37.6870177 112.240099,36.7048487 C112.803738,35.7491266 113.623278,34.9699619 114.606233,34.4552847 L114.606233,34.4552847 Z" id="Path" fill="#6F2DBD"></path><path d="M147.962778,35.3134425 C147.358076,33.8354716 146.284463,32.5971566 144.907141,31.7890429 C143.538057,30.9953709 141.834969,30.5977082 139.797878,30.5960547 C137.998449,30.564377 136.220556,30.9911396 134.631569,31.8361671 C133.162488,32.6241937 131.942047,33.8059858 131.10717,35.2489566 C130.236827,36.8014273 129.799134,38.5590494 129.839775,40.3383782 C129.802932,42.1094578 130.254282,43.8565095 131.144373,45.3881161 C132.008656,46.8359742 133.262576,48.0116859 134.763021,48.7810638 C136.373889,49.6051483 138.162283,50.0215886 139.971494,49.9938938 C141.464378,50.0279696 142.946646,49.7350713 144.314368,49.135736 C145.472851,48.6211812 146.485347,47.8268665 147.260875,46.8241664 C147.991351,45.8629051 148.471985,44.7354621 148.659722,43.5428288 L145.241972,43.5428288 C144.939824,44.541798 144.283742,45.3962926 143.396684,45.9461667 C142.46412,46.5563021 141.314122,46.8613697 139.946691,46.8613697 C138.828945,46.8837265 137.722485,46.6343474 136.722399,46.1346638 C135.811773,45.6657737 135.041589,44.9640508 134.490197,44.1008794 C133.921124,43.2023416 133.570319,42.1830529 133.465864,41.1246095 L148.791173,41.1246095 C148.910224,38.8047724 148.634093,36.8677168 147.962778,35.3134425 Z M133.64444,38.3541982 C133.952109,37.0194761 134.700994,35.8275508 135.769993,34.9711714 C136.839796,34.1130136 138.182425,33.6839347 139.797878,33.6839347 C141.13263,33.6401477 142.439873,34.0697457 143.488453,34.8967647 C144.480543,35.705318 145.027846,36.8553156 145.130362,38.3467576 L133.64444,38.3541982 Z" id="Shape" fill="#6F2DBD"></path></g></g></g></svg> 